name analog
datacolumns 19
datarows 41
range 0.0 0.02
endheader
time	ground_force_vx	ground_force_vy	ground_force_vz	ground_force_px	ground_force_py	ground_force_pz	l_ground_force_vx	l_ground_force_vy	l_ground_force_vz	l_ground_force_px	l_ground_force_py	l_ground_force_pz	ground_torque_x	ground_torque_y	ground_torque_z	l_ground_torque_x	l_ground_torque_y	l_ground_torque_z
0.0	-0.0	-0.0	-0.0	-1.4932608604431152	12.544089317321776	-226.09669494628903	1.3458201885223389	-11.835105895996094	-274.75250244140625	-0.0	-0.0	-0.0	-0.0	-0.0	-0.0	94098.234375	-19508.06640625	457.36920166015625
0.0005	-0.0	-0.0	-0.0	-1.0628119707107544	12.485963821411133	-225.59036254882807	1.5892730951309204	-11.827617645263672	-275.04266357421875	-0.0	-0.0	-0.0	-0.0	-0.0	-0.0	94065.84375	-19271.78125	304.8263854980469
0.001	-0.0	-0.0	-0.0	-1.776573657989502	12.567386627197266	-226.3581085205078	1.5967941284179688	-11.8276948928833	-275.0728759765625	-0.0	-0.0	-0.0	-0.0	-0.0	-0.0	94192.3671875	-19377.939453125	455.331787109375
0.0015	-0.0	-0.0	-0.0	-0.990633189678192	12.248726844787598	-225.0656280517578	1.8259927034378047	-12.01910400390625	-275.1605529785156	-0.0	-0.0	-0.0	-0.0	-0.0	-0.0	94263.578125	-19476.8203125	354.2142944335937
0.002	-0.0	-0.0	-0.0	-1.494043231010437	12.174270629882812	-226.03515625	1.4340122938156128	-11.989886283874512	-275.48065185546875	-0.0	-0.0	-0.0	-0.0	-0.0	-0.0	94179.9296875	-19212.486328125	418.1664123535156
0.0025	-0.0	-0.0	-0.0	-1.323289155960083	12.51539421081543	-226.5649261474609	1.352389931678772	-11.835105895996094	-273.73486328125	-0.0	-0.0	-0.0	-0.0	-0.0	-0.0	94015.484375	-19110.69921875	356.3460693359375
0.003	-0.0	-0.0	-0.0	-1.6876229047775269	12.485626220703123	-225.32879638671875	1.500897765159607	-12.10007095336914	-273.9328308105469	-0.0	-0.0	-0.0	-0.0	-0.0	-0.0	94267.484375	-19184.166015625	333.9096374511719
0.0035	-0.0	-0.0	-0.0	-1.4857615232467651	12.791022300720217	-225.2421112060547	1.426481008529663	-11.944659233093262	-274.43316650390625	-0.0	-0.0	-0.0	-0.0	-0.0	-0.0	94264.6484375	-19062.234375	463.0972290039063
0.004	-0.0	-0.0	-0.0	-1.4129040241241455	11.98682689666748	-226.41696166992188	1.3306617736816406	-11.842116355895996	-274.0008850097656	-0.0	-0.0	-0.0	-0.0	-0.0	-0.0	93923.3828125	-19339.90234375	410.88037109375
0.0045000000000000005	-0.0	-0.0	-0.0	-1.866246223449707	12.492591857910156	-225.4992218017578	1.5828253030776978	-12.086163520812988	-274.57061767578125	-0.0	-0.0	-0.0	-0.0	-0.0	-0.0	94156.2265625	-19004.298828125	427.3655090332031
0.005	-0.0	-0.0	-0.0	-1.2378026247024536	12.574477195739746	-226.8258056640625	1.7604011297225952	-11.889042854309082	-273.52166748046875	-0.0	-0.0	-0.0	-0.0	-0.0	-0.0	94276.5	-19325.408203125	376.9355163574219
0.0055	-0.0	-0.0	-0.0	-1.3240981101989746	12.649493217468262	-226.71368408203125	1.5149238109588623	-11.73997402191162	-276.0712585449219	-0.0	-0.0	-0.0	-0.0	-0.0	-0.0	94143.0234375	-19391.9765625	516.0363159179688
0.006	-0.0	-0.0	-0.0	-1.8664485216140747	12.513086318969728	-226.7691192626953	1.7058547735214231	-11.828351974487305	-275.1314697265625	-0.0	-0.0	-0.0	-0.0	-0.0	-0.0	94213.125	-19301.24609375	388.3778381347656
0.006500000000000001	-0.0	-0.0	-0.0	-1.3174737691879272	12.210865020751951	-227.01280212402344	1.83610200881958	-11.991719245910645	-275.37506103515625	-0.0	-0.0	-0.0	-0.0	-0.0	-0.0	94156.1484375	-19307.4296875	532.2125854492188
0.007	-0.0	-0.0	-0.0	-0.6860052943229675	12.512410163879396	-226.66030883789065	1.6100915670394895	-11.998510360717772	-273.8133850097656	-0.0	-0.0	-0.0	-0.0	-0.0	-0.0	94353.3359375	-19279.6640625	497.9396057128906
0.0075	-0.0	-0.0	-0.0	-1.4206088781356812	12.33376121520996	-227.80105590820312	1.3996578454971311	-11.658462524414062	-274.7564697265625	-0.0	-0.0	-0.0	-0.0	-0.0	-0.0	94442.609375	-19178.923828125	406.73834228515625
0.008	-0.0	-0.0	-0.0	-1.0102964639663696	12.49831485748291	-227.1211853027344	1.41937255859375	-11.99232006072998	-275.1570739746094	-0.0	-0.0	-0.0	-0.0	-0.0	-0.0	94300.375	-19177.6015625	385.7710876464844
0.0085	-0.0	-0.0	-0.0	-1.083795428276062	12.415640830993652	-226.38833618164065	1.4451632499694824	-11.425594329833984	-275.1061096191406	-0.0	-0.0	-0.0	-0.0	-0.0	-0.0	94180.4921875	-19100.9921875	502.4143371582031
0.009000000000000001	-0.0	-0.0	-0.0	-0.8291229605674744	12.478256225585938	-227.1206512451172	1.5144538879394531	-11.91074275970459	-274.7322082519531	-0.0	-0.0	-0.0	-0.0	-0.0	-0.0	94244.578125	-19043.310546875	273.549072265625
0.0095	-0.0	-0.0	-0.0	-1.185696363449097	13.037327766418455	-227.52496337890625	1.501779556274414	-11.576416969299316	-273.8092956542969	-0.0	-0.0	-0.0	-0.0	-0.0	-0.0	93900.2734375	-18811.556640625	377.4364318847656
0.01	-0.0	-0.0	-0.0	-1.395206332206726	13.082889556884766	-227.7755889892578	1.1719796657562256	-11.822668075561523	-275.7806091308594	-0.0	-0.0	-0.0	-0.0	-0.0	-0.0	93995.4375	-18829.291015625	351.71026611328125
0.0105	-0.0	-0.0	-0.0	-1.3318028450012207	12.40182399749756	-227.80105590820312	1.407033920288086	-11.816679000854492	-273.73486328125	-0.0	-0.0	-0.0	-0.0	-0.0	-0.0	93852.4921875	-18999.423828125	347.77880859375
0.011	-0.0	-0.0	-0.0	-1.4147733449935913	12.535927772521973	-229.51708984375	1.896626710891724	-11.746784210205078	-274.806396484375	-0.0	-0.0	-0.0	-0.0	-0.0	-0.0	93546.7109375	-18618.962890625	466.8581848144531
0.0115	-0.0	-0.0	-0.0	-1.5684702396392822	12.478256225585938	-229.2137756347656	1.377126693725586	-12.094061851501465	-271.7112121582031	-0.0	-0.0	-0.0	-0.0	-0.0	-0.0	93748.1328125	-18672.16796875	434.7957763671875
0.012	-0.0	-0.0	-0.0	-1.7134580612182615	12.988449096679688	-229.8227081298828	1.3366302251815796	-11.734899520874023	-273.0130615234375	-0.0	-0.0	-0.0	-0.0	-0.0	-0.0	93341.9765625	-18840.458984375	219.58883666992188
0.0125	-0.0	-0.0	-0.0	-1.735448122024536	12.561296463012695	-227.64093017578125	1.8333702087402344	-11.764440536499023	-272.710693359375	-0.0	-0.0	-0.0	-0.0	-0.0	-0.0	93136.453125	-18956.388671875	411.6356201171875
0.013000000000000001	-0.0	-0.0	-0.0	-1.5877361297607422	12.57339859008789	-229.4954833984375	1.4485430717468262	-11.570140838623049	-271.7088317871094	-0.0	-0.0	-0.0	-0.0	-0.0	-0.0	93182.3359375	-18644.34375	354.0598449707031
0.0135	-0.0	-0.0	-0.0	-1.587937593460083	12.900127410888672	-228.55453491210935	1.7569137811660769	-12.07136058807373	-272.9003601074219	-0.0	-0.0	-0.0	-0.0	-0.0	-0.0	93219.578125	-18743.2890625	556.0145263671875
0.014	-0.0	-0.0	-0.0	-1.6596418619155884	12.727984428405762	-229.52029418945312	1.77992582321167	-11.989008903503418	-271.3807373046875	-0.0	-0.0	-0.0	-0.0	-0.0	-0.0	93073.4140625	-18629.765625	312.045654296875
0.0145	-0.0	-0.0	-0.0	-1.6601073741912842	12.85801887512207	-228.860595703125	1.8572936058044436	-12.000533103942873	-272.9922180175781	-0.0	-0.0	-0.0	-0.0	-0.0	-0.0	93215.734375	-18784.716796875	411.6857299804688
0.015	-0.0	-0.0	-0.0	-1.3381576538085938	13.107921600341797	-228.90618896484372	1.5967941284179688	-11.818451881408691	-271.6618957519531	-0.0	-0.0	-0.0	-0.0	-0.0	-0.0	93142.84375	-18741.36328125	437.50091552734375
0.0155	-0.0	-0.0	-0.0	-1.004036784172058	12.923908233642578	-229.70188903808597	1.9461387395858765	-11.840579986572266	-272.6658020019531	-0.0	-0.0	-0.0	-0.0	-0.0	-0.0	93078.7109375	-18558.193359375	382.17041015625
0.016	-0.0	-0.0	-0.0	-0.9981549978256226	12.895868301391602	-229.8756866455078	1.6130895614624023	-11.76841640472412	-271.9891357421875	-0.0	-0.0	-0.0	-0.0	-0.0	-0.0	93074.1953125	-18613.5390625	498.8140563964844
0.0165	-0.0	-0.0	-0.0	-1.2267251014709473	12.678719520568848	-230.2733154296875	1.9516372680664065	-11.730731010437012	-272.3594055175781	-0.0	-0.0	-0.0	-0.0	-0.0	-0.0	93122.3359375	-18780.0	352.5796813964844
0.017	-0.0	-0.0	-0.0	-0.8975830078125	12.98020076751709	-229.30052185058597	1.612686276435852	-12.084248542785645	-272.645751953125	-0.0	-0.0	-0.0	-0.0	-0.0	-0.0	93165.921875	-18296.06640625	383.7100524902344
0.0175	-0.0	-0.0	-0.0	-0.4839282035827636	12.856401443481444	-229.6526336669922	2.0298867225646973	-12.151938438415527	-273.323974609375	-0.0	-0.0	-0.0	-0.0	-0.0	-0.0	93080.625	-18655.84375	486.9041137695313
0.018000000000000002	-0.0	-0.0	-0.0	-0.9081647992134094	12.761693000793455	-230.3368988037109	1.5916208028793335	-11.726181030273438	-272.02984619140625	-0.0	-0.0	-0.0	-0.0	-0.0	-0.0	92928.109375	-18348.447265625	493.7925415039063
0.0185	-0.0	-0.0	-0.0	-0.7084084153175354	13.186028480529783	-230.73092651367188	1.5080833435058594	-11.762005805969238	-272.278076171875	-0.0	-0.0	-0.0	-0.0	-0.0	-0.0	92673.8984375	-18723.34765625	298.1336669921875
0.019	-0.0	-0.0	-0.0	-0.9030442833900452	13.322136878967283	-230.29397583007807	2.0101141929626465	-11.590208053588867	-270.96148681640625	-0.0	-0.0	-0.0	-0.0	-0.0	-0.0	92787.9921875	-18706.173828125	417.1521911621094
0.0195	-0.0	-0.0	-0.0	-0.1200535148382186	13.143256187438965	-230.4361267089844	1.5918322801589966	-11.5849609375	-271.60089111328125	-0.0	-0.0	-0.0	-0.0	-0.0	-0.0	92582.8359375	-18125.33984375	464.5182189941406
0.02	-0.0	-0.0	-0.0	-0.4409793317317962	13.78986930847168	-232.33213806152344	1.9369524717330933	-11.30517578125	-269.25372314453125	-0.0	-0.0	-0.0	-0.0	-0.0	-0.0	92562.25	-18268.3125	469.8570251464844
